<?xml version="1.0" encoding="utf-8"?>
<!-- Generator: Adobe Illustrator 25.3.1, SVG Export Plug-In . SVG Version: 6.00 Build 0)  -->
<svg version="1.1" id="Layer_1" xmlns="http://www.w3.org/2000/svg" xmlns:xlink="http://www.w3.org/1999/xlink" x="0px" y="0px"
	 viewBox="0 0 100 31.32" style="enable-background:new 0 0 100 31.32;" xml:space="preserve">
<style type="text/css">
	.st0{fill:#546122;}
</style>
<g>
	<path class="st0" d="M0.3,21.81V1.63h4.23v6.34C5.32,7.31,6.5,6.86,7.95,6.86c3.62,0,5.92,2.54,5.92,7.4c0,5.89-2.66,8.82-7.4,8.82
		C4.29,23.08,1.63,22.51,0.3,21.81 M9.67,14.8c0-2.39-0.48-4.93-2.93-4.93c-1.18,0-2.2,0.79-2.2,1.93v7.83
		c0.54,0.27,1.33,0.48,2.11,0.48C8.58,20.12,9.67,18.49,9.67,14.8"/>
	<path class="st0" d="M14.77,17.64V7.31H19v9.67c0,1.66,0.27,2.84,1.96,2.84c1.36,0,2.48-1.27,2.48-2.54V7.31h4.23v12.6l0.27,2.72
		h-3.57l-0.24-1.66h-0.12c-1,1.42-2.51,2.06-4.2,2.06C16.47,23.02,14.77,21.24,14.77,17.64"/>
	<path class="st0" d="M30.18,26.62c0-2.17,1.33-3.87,3.11-5.17c-2.54-0.39-3.93-1.78-3.93-4.83V7.31h4.23v8.97
		c0,1.63,0.15,2.75,2.11,2.75c1.21,0,2.33-0.97,2.33-2.51V7.31h4.23v12.78c0,0.97-0.09,3.23-0.27,4.2
		c-0.45,4.08-2.69,6.38-6.77,6.38C31.87,30.66,30.18,29.09,30.18,26.62 M38.13,23.87V21c-2.24,1.06-4.23,2.57-4.23,4.86
		c0,1.18,0.66,1.75,1.81,1.75C37.49,27.61,38.13,26.19,38.13,23.87"/>
	<path class="st0" d="M43.08,15.65c0-5.32,2.72-8.79,8.01-8.79c1.03,0,3.29,0.27,5.56,1.12v11.6l0.3,3.05h-3.59l-0.24-1.54
		l-0.12-0.03c-0.82,1.21-2.11,2.05-3.99,2.05C44.41,23.11,43.08,19.58,43.08,15.65 M52.48,17.79v-7.58
		c-0.42-0.18-1.12-0.33-1.9-0.33c-2.48,0-3.32,2.57-3.32,5.53c0,2.42,0.54,4.62,2.72,4.62C51.57,20.03,52.48,18.91,52.48,17.79"/>
	<path class="st0" d="M58.07,7.31h3.47l0.33,1.78c0.97-1.39,2.36-2.24,4.29-2.24c1.84,0,3.26,0.7,4.11,2.24
		c0.91-1.42,2.36-2.24,4.29-2.24c3.02,0,4.8,1.75,4.8,5.35v10.42h-4.23v-9.64c0-1.6-0.24-2.87-1.9-2.87c-1.45,0-2.27,1.18-2.27,2.63
		v9.88h-4.23v-9.64c0-1.51-0.15-2.87-1.87-2.87c-1.51,0-2.3,1.21-2.3,2.72v9.79h-4.2V10.15L58.07,7.31z"/>
	<rect x="80.75" y="7.31" class="st0" width="4.26" height="15.32"/>
	<path class="st0" d="M85.83,15.65c0-5.32,2.72-8.79,8.01-8.79c1.03,0,3.29,0.27,5.56,1.12v11.6l0.3,3.05H96.1l-0.24-1.54
		l-0.12-0.03c-0.82,1.21-2.11,2.05-3.99,2.05C87.16,23.11,85.83,19.58,85.83,15.65 M95.23,17.79v-7.58
		c-0.42-0.18-1.12-0.33-1.9-0.33c-2.48,0-3.32,2.57-3.32,5.53c0,2.42,0.54,4.62,2.72,4.62C94.32,20.03,95.23,18.91,95.23,17.79"/>
	<g>
		<path class="st0" d="M82.43,5.32c0-0.26,0.19-0.46,0.47-0.46c0.32,0,0.49,0.18,0.49,0.46c0,0.28-0.17,0.49-0.47,0.49
			C82.6,5.8,82.43,5.61,82.43,5.32z"/>
		<path class="st0" d="M84.07,3.41c0-1.81,1.1-2.41,2.08-2.41c0.58,0,1.19,0.22,1.59,0.85l-0.6,0.44c-0.29-0.37-0.61-0.58-1.03-0.58
			c-0.71,0-1.19,0.6-1.19,1.64c0,1.06,0.39,1.72,1.23,1.72c0.39,0,0.74-0.17,1.08-0.49l0.44,0.55c-0.46,0.42-0.96,0.63-1.57,0.63
			C84.86,5.78,84.07,4.99,84.07,3.41z"/>
		<path class="st0" d="M88.27,3.4c0-1.78,1.08-2.4,2.05-2.4c1.03,0,1.93,0.63,1.93,2.4c0,1.59-0.79,2.38-2.01,2.38
			C89.01,5.78,88.27,4.98,88.27,3.4z M91.39,3.42c0-0.71-0.22-1.71-1.11-1.71c-0.83,0-1.14,0.82-1.14,1.65
			c0,0.79,0.2,1.71,1.15,1.71C91.13,5.08,91.39,4.25,91.39,3.42z"/>
		<path class="st0" d="M94.47,1.08l1.15,3.01h0.01l1.18-3.01h0.93l0.25,4.61h-0.8l-0.17-3.18H97l-1.07,2.66h-0.64l-1.04-2.63h-0.01
			L94.07,5.7h-0.8l0.26-4.61H94.47z"/>
	</g>
</g>
</svg>
